<svg xmlns="http://www.w3.org/2000/svg" viewBox="0 0 22.535 22.535"><defs><style>.a{fill:#dbd900;}</style></defs><title>blog-icon</title><path class="a" d="M18.967,0H3.568A3.578,3.578,0,0,0,0,3.568v15.4a3.578,3.578,0,0,0,3.568,3.568H22.535V3.568A3.578,3.578,0,0,0,18.967,0ZM17.615,18.245a.752.752,0,0,1-.75.75H5.669a.752.752,0,0,1-.75-.75V16.889a.752.752,0,0,1,.75-.75h11.2a.752.752,0,0,1,.75.75Zm0-5.506a.752.752,0,0,1-.75.75H5.669a.752.752,0,0,1-.75-.75V11.383a.752.752,0,0,1,.75-.75h11.2a.752.752,0,0,1,.75.75Zm0-5.506a.752.752,0,0,1-.75.75H5.669a.752.752,0,0,1-.75-.75V5.877a.752.752,0,0,1,.75-.75h11.2a.752.752,0,0,1,.75.75Z"/></svg>