<svg xmlns="http://www.w3.org/2000/svg" viewBox="0 0 28.515 28.515"><defs><style>.a{fill:#c1c1c1;}.b{fill:#fff;}</style></defs><title>host-grey</title><circle class="a" cx="14.258" cy="14.258" r="14.258"/><path class="b" d="M20.46,20.473H8.1A1.585,1.585,0,0,1,6.55,18.927V13.776a.487.487,0,0,0-.515-.515H5a.567.567,0,0,1-.515-.309c-.1-.206,0-.412.206-.618l8.655-6.7a1.546,1.546,0,0,1,1.855,0l8.655,6.7c.206.1.206.412.206.618a.567.567,0,0,1-.515.309H22.52a.487.487,0,0,0-.515.515v5.152A1.585,1.585,0,0,1,20.46,20.473ZM6.447,12.23a1.653,1.653,0,0,1,1.133,1.442v5.152a.487.487,0,0,0,.515.515H20.46a.487.487,0,0,0,.515-.515V13.672a1.453,1.453,0,0,1,1.133-1.442L14.587,6.357a.657.657,0,0,0-.618,0Z"/><path class="b" d="M15.823,19.958V14.806a.487.487,0,0,0-.515-.515H13.247a.487.487,0,0,0-.515.515v5.152H11.7V14.806a1.585,1.585,0,0,1,1.546-1.546h2.061a1.585,1.585,0,0,1,1.546,1.546v5.152Z"/></svg>