<svg xmlns="http://www.w3.org/2000/svg" viewBox="0 0 28.515 28.515"><defs><style>.a{fill:#c1c1c1;}.b{fill:#fff;}</style></defs><title>learn-grey</title><circle class="a" cx="14.258" cy="14.258" r="14.258"/><path class="b" d="M24.267,9.2,15.491,5.968a4.313,4.313,0,0,0-2.976,0L4.3,9.145a1.692,1.692,0,0,0,0,3.177L13.07,15.55a4.686,4.686,0,0,0,1.463.252,3.222,3.222,0,0,0,1.412-.3l2.017-.757a.511.511,0,1,0-.353-.958l-2.017.757a3.2,3.2,0,0,1-2.169,0L4.648,11.364a.664.664,0,0,1-.454-.605.718.718,0,0,1,.454-.656l8.221-3.127a3.2,3.2,0,0,1,2.27,0L23.914,10.2a.509.509,0,0,1,.454.555.7.7,0,0,1-.5.656l-3.53,1.362-5.346-2.169a1.211,1.211,0,0,0-.958-.353c-.555,0-1.009.252-1.009.5s.4.454.908.5l5.9,2.37v6.254A1.469,1.469,0,0,0,18.82,21.3a1.513,1.513,0,1,0,3.026,0,1.454,1.454,0,0,0-.807-1.311,10.567,10.567,0,0,0,1.11-.807.545.545,0,0,0,.151-.353V14.793a.5.5,0,0,0-1.009,0v3.783a1.812,1.812,0,0,1-.5.353V13.684l3.379-1.261a1.728,1.728,0,0,0,1.16-1.614A1.6,1.6,0,0,0,24.267,9.2ZM20.837,21.35a.5.5,0,1,1-.5-.5A.476.476,0,0,1,20.837,21.35Z"/><path class="b" d="M17.761,20.845a.431.431,0,0,0-.555-.353A12.166,12.166,0,0,1,7.22,18.576V14.793a.5.5,0,0,0-1.009,0v4.035a.393.393,0,0,0,.151.353c1.967,1.765,5.447,2.673,7.918,2.673a14,14,0,0,0,3.127-.4A.479.479,0,0,0,17.761,20.845Z"/></svg>